<?xml version="1.0" standalone="no"?>
<!DOCTYPE svg PUBLIC "-//W3C//DTD SVG 20010904//EN"
 "http://www.w3.org/TR/2001/REC-SVG-20010904/DTD/svg10.dtd">
<svg version="1.0" xmlns="http://www.w3.org/2000/svg"
 width="960.000000pt" height="960.000000pt" viewBox="0 0 960.000000 960.000000"
 preserveAspectRatio="xMidYMid meet">

<g transform="translate(0.000000,960.000000) scale(0.100000,-0.100000)"
fill="#000000" stroke="none">
<path d="M1719 9473 c-252 -258 -501 -540 -723 -818 -105 -131 -533 -650 -603
-731 -10 -12 -99 -119 -197 -238 -98 -119 -183 -216 -187 -216 -5 0 -9 -1661
-9 -3735 l0 -3735 460 0 460 0 98 95 c53 52 102 95 107 94 6 0 -11 -20 -38
-44 -43 -39 -46 -45 -30 -55 16 -10 16 -10 -3 -5 -16 4 -32 -5 -63 -36 -22
-23 -41 -42 -41 -43 0 -1 66 -2 148 -3 l147 0 38 38 c34 36 35 39 15 40 -22 0
-22 1 -3 8 11 5 43 11 70 14 28 4 42 3 31 -1 -19 -8 -19 -9 -1 -15 10 -4 27
-1 39 6 27 18 113 46 149 49 15 1 27 5 27 9 0 3 30 9 68 13 90 8 118 16 100
28 -9 6 -2 8 22 5 22 -3 40 1 49 11 11 10 16 11 19 3 2 -7 8 -8 15 -3 12 9 57
21 112 28 17 2 116 22 220 44 105 22 219 44 255 50 36 5 105 21 154 34 49 13
95 22 103 19 7 -3 19 -1 26 5 6 6 17 11 22 12 24 5 45 28 39 44 -3 9 -1 16 5
16 6 0 11 -4 11 -10 0 -5 7 -7 15 -4 22 9 19 35 -3 28 -13 -5 -14 -4 -3 4 9 7
10 12 2 16 -14 9 -14 26 -1 26 6 0 10 -7 10 -15 0 -8 7 -15 15 -15 13 0 15 8
10 37 -4 25 -3 33 3 24 7 -9 12 -10 16 -2 4 6 4 11 0 11 -4 0 1 9 11 20 10 11
15 23 11 28 -4 4 -25 -12 -47 -36 -22 -23 -44 -42 -48 -42 -5 0 -14 -7 -21
-15 -7 -8 -21 -15 -31 -15 -11 0 -27 -9 -36 -20 -10 -11 -28 -20 -40 -20 -13
0 -23 -4 -23 -10 0 -14 16 -12 51 6 17 8 36 13 42 10 7 -2 4 -5 -5 -5 -10 -1
-18 -5 -18 -11 0 -5 -7 -10 -15 -10 -9 0 -26 -6 -38 -14 -28 -18 -147 -33
-147 -18 0 14 28 23 32 10 3 -8 10 -8 25 1 12 6 31 11 42 11 l21 0 -20 20
c-11 11 -25 20 -30 20 -6 0 -9 3 -9 8 3 19 -2 23 -16 12 -8 -7 -13 -16 -10
-20 8 -14 -23 -32 -47 -27 -20 4 -19 4 5 6 34 1 32 24 -2 29 -14 2 -31 -6 -46
-22 -25 -27 -45 -34 -45 -16 0 6 9 10 20 10 11 0 20 4 20 9 0 15 -41 24 -53
12 -15 -15 -54 -14 -60 2 -3 9 -9 9 -26 -1 -12 -7 -21 -8 -21 -2 0 5 4 10 9
10 4 0 6 12 3 26 -3 16 -7 21 -12 14 -4 -6 -10 8 -13 32 -3 23 -11 69 -18 100
-11 47 -11 61 1 82 10 20 11 28 1 40 -16 20 -4 39 20 33 23 -6 36 10 20 26 -8
8 -11 8 -11 -1 0 -7 -7 -12 -15 -12 -12 0 -12 3 2 20 12 14 19 16 24 8 6 -9
13 -7 28 7 24 21 20 35 -4 15 -8 -7 -15 -8 -15 -4 0 5 9 14 19 21 35 22 194
167 317 288 67 66 163 158 215 205 52 47 107 98 124 115 16 16 48 44 70 61 22
18 69 59 104 93 36 34 71 59 78 57 7 -3 13 0 13 7 0 7 9 21 21 30 20 18 21 17
40 -4 10 -12 19 -26 19 -32 0 -5 -8 1 -19 14 -16 20 -20 21 -33 8 -8 -8 -20
-25 -27 -37 -7 -14 -18 -21 -27 -18 -8 3 -14 -1 -14 -8 0 -8 -5 -17 -10 -19
-6 -3 -5 -4 2 -3 17 3 41 -21 33 -34 -3 -5 -14 -10 -23 -9 -11 0 -12 3 -4 6
22 9 13 20 -18 20 -31 0 -40 -11 -17 -21 6 -3 0 -4 -15 -1 -16 3 -28 1 -28 -5
0 -5 6 -10 14 -10 8 0 17 -7 20 -16 6 -15 4 -15 -20 1 -34 22 -43 11 -13 -15
24 -21 24 -21 2 -15 -17 5 -21 3 -17 -8 2 -7 -3 -20 -12 -28 -15 -13 -16 -11
-10 11 5 18 5 21 -3 10 -5 -8 -7 -27 -4 -42 4 -19 1 -28 -7 -28 -7 0 -23 -12
-36 -28 -23 -25 -23 -28 -7 -40 10 -8 30 -18 46 -24 25 -9 27 -14 27 -63 0
-30 -4 -57 -10 -60 -6 -4 -10 17 -10 54 0 53 -2 61 -19 61 -21 0 -36 -39 -21
-54 6 -6 10 -15 10 -20 0 -6 -7 0 -16 12 -10 15 -13 32 -9 52 6 26 4 30 -14
30 -12 0 -21 -6 -21 -16 0 -8 4 -13 9 -9 16 9 1 -154 -21 -230 -34 -122 -75
-228 -113 -295 -8 -14 -15 -44 -15 -67 0 -36 3 -43 20 -43 11 0 20 3 21 8 3
33 52 177 81 241 22 49 35 90 47 156 4 22 13 50 19 62 7 12 12 32 12 45 1 21
2 21 11 5 8 -13 7 -22 -3 -34 -10 -13 -10 -17 0 -20 6 -3 12 -13 12 -24 0 -10
3 -19 6 -19 14 0 74 42 69 49 -2 4 40 7 94 7 55 -1 94 -4 88 -8 -7 -4 -29 -8
-49 -8 -20 0 -40 -5 -44 -12 -5 -8 3 -9 30 -5 22 3 34 2 31 -4 -4 -5 4 -9 17
-9 13 0 64 -11 113 -24 218 -60 305 -76 305 -56 0 6 7 10 16 10 11 0 14 6 9
20 -4 11 -2 20 4 20 6 0 11 -4 11 -10 0 -5 7 -10 16 -10 8 0 13 4 10 9 -4 5 3
7 14 4 11 -3 33 0 50 5 38 14 57 7 74 -27 8 -14 32 -45 53 -69 29 -33 43 -41
58 -37 14 5 16 4 7 -2 -17 -13 -4 -43 62 -143 61 -93 56 -87 65 -71 6 10 10 9
15 -4 9 -24 7 -32 -4 -15 -5 8 -10 10 -10 4 0 -6 9 -21 20 -34 11 -12 34 -46
52 -74 18 -28 40 -58 48 -66 8 -9 23 -27 33 -40 l18 -25 -7 24 c-4 17 -3 21 6
16 6 -4 9 -17 6 -30 -4 -14 1 -32 12 -46 29 -39 62 -99 62 -115 0 -8 3 -14 8
-14 4 0 14 -15 21 -33 15 -33 86 -142 109 -165 6 -8 17 -23 23 -34 22 -41 50
-66 70 -61 19 5 28 -12 8 -19 -23 -8 4 -38 34 -38 33 0 28 14 -8 24 -11 3 -2
3 20 1 22 -3 41 -9 43 -15 2 -5 26 -10 53 -10 47 0 49 1 39 20 -12 22 -6 40
13 40 8 0 8 -3 -2 -9 -10 -6 -10 -13 -3 -28 9 -16 23 -20 89 -21 l78 -2 -71
72 c-77 80 -242 268 -317 363 -86 110 -205 265 -240 314 -91 128 -167 241
-167 250 0 5 -9 16 -21 24 -17 12 -19 19 -10 35 12 23 -5 66 -38 96 -26 24
-154 303 -147 321 4 11 13 14 31 9 38 -9 67 2 113 44 47 44 53 61 20 63 -18 1
-19 2 -5 6 10 3 24 0 31 -6 18 -15 26 -3 26 38 0 27 -3 32 -10 21 -7 -11 -10
-7 -10 17 0 17 4 34 9 37 4 3 6 17 4 31 -3 13 -9 22 -14 19 -5 -3 -9 -1 -9 5
0 5 5 11 11 13 8 3 10 16 5 41 -4 24 -11 35 -18 31 -7 -4 -8 -3 -4 4 4 7 3 12
-3 12 -5 0 -18 13 -27 30 -13 21 -20 26 -26 17 -12 -19 -9 -40 5 -34 7 3 19
-4 25 -14 8 -12 8 -19 2 -19 -5 0 -10 6 -10 13 -1 7 -6 5 -14 -5 -20 -27 -25
-22 -22 27 1 25 -1 45 -5 45 -4 0 -5 9 -2 20 5 21 -11 28 -22 10 -3 -6 -17
-10 -29 -10 -20 0 -24 -6 -30 -50 -4 -27 -12 -50 -17 -50 -7 0 -8 7 -4 17 4
10 10 32 13 48 6 40 21 57 43 50 28 -9 30 10 4 39 -14 15 -26 32 -26 39 -1 7
-5 -6 -9 -28 l-7 -40 -2 42 c0 23 3 44 7 47 5 3 24 -15 42 -39 18 -24 36 -43
40 -42 7 2 60 -57 60 -67 0 -4 12 -19 28 -34 15 -15 45 -48 66 -72 237 -270
432 -431 671 -555 154 -80 387 -169 474 -180 92 -11 229 -15 305 -7 78 7 92 6
107 -9 9 -9 22 -18 30 -21 15 -5 39 -103 33 -138 -3 -19 4 -31 27 -49 31 -24
84 -41 107 -34 14 5 16 39 3 47 -18 11 -70 114 -77 152 -10 59 -30 90 -68 108
-29 14 -48 15 -137 5 -56 -5 -106 -12 -109 -14 -4 -2 -22 7 -40 20 -42 31 -53
32 -45 3 7 -21 6 -21 -63 -15 -39 4 -95 13 -124 21 -179 47 -455 177 -609 287
-177 125 -429 369 -429 414 0 13 -7 26 -16 29 -13 5 -14 9 -5 20 9 11 -1 30
-51 91 -35 43 -67 84 -72 90 -7 9 0 21 22 40 18 15 32 35 32 46 0 24 15 24 48
0 76 -53 199 -97 309 -111 85 -11 104 -8 148 25 17 13 39 26 51 29 11 3 33 19
48 35 24 26 32 28 52 19 13 -6 27 -20 30 -32 10 -33 111 -155 264 -320 55 -59
188 -180 269 -246 24 -19 57 -46 75 -60 103 -84 292 -207 399 -262 59 -29 61
-30 89 -13 28 16 30 16 84 -17 49 -29 58 -39 74 -86 14 -42 15 -60 7 -82 -16
-41 1 -105 28 -105 17 0 20 8 23 49 2 32 -1 52 -9 57 -9 5 0 13 27 23 27 11
47 29 64 59 21 36 25 39 28 20 2 -12 10 -27 18 -33 21 -18 18 -38 -22 -149
-29 -79 -40 -101 -55 -101 -11 0 -19 -7 -19 -15 0 -11 -11 -15 -41 -15 -31 0
-40 -3 -36 -14 6 -14 -30 -26 -78 -26 -12 0 -28 -7 -35 -15 -9 -11 -16 -13
-24 -5 -5 5 -22 10 -37 10 -14 0 -82 12 -150 26 -93 19 -128 23 -141 15 -10
-6 -18 -8 -18 -4 0 12 53 87 88 125 22 23 32 42 29 52 -10 26 -29 18 -78 -34
-63 -67 -135 -209 -154 -302 -54 -273 -118 -463 -164 -488 -11 -5 -18 -16 -15
-23 6 -18 -84 -117 -107 -117 -10 0 -21 -5 -24 -10 -11 -18 118 -12 145 7 21
14 23 15 12 1 -11 -14 -9 -16 23 -16 30 0 34 2 24 14 -15 18 1 17 25 -1 14
-11 46 -15 112 -15 l93 0 25 43 c14 23 26 35 26 26 0 -8 -5 -20 -10 -25 -6 -6
-8 -18 -4 -27 6 -16 50 -17 530 -17 l524 0 36 73 c55 108 121 270 128 313 6
36 2 45 -43 104 -51 68 -69 118 -41 112 8 -2 12 -1 8 3 -3 4 0 22 8 40 8 19
14 62 14 95 0 38 4 60 11 60 8 0 10 14 6 40 -4 29 -2 38 6 33 7 -4 6 0 -1 10
-8 9 -11 21 -7 27 9 15 13 41 25 190 11 143 17 170 36 170 8 0 14 6 14 13 0 8
10 19 23 26 l22 11 -23 -6 c-21 -5 -23 -3 -17 15 4 15 2 21 -9 21 -8 0 -18 4
-21 10 -4 6 1 7 11 3 16 -6 17 0 11 63 -3 39 -1 77 4 85 8 13 10 -1 13 -130 1
-19 7 -36 15 -39 11 -4 12 8 6 59 -4 35 -7 91 -7 124 1 32 -3 64 -7 70 -12 15
-20 104 -10 111 13 8 11 62 -2 70 -7 4 -9 0 -5 -13 4 -11 0 -32 -8 -47 l-14
-27 -6 28 c-6 21 -9 24 -17 12 -11 -18 -11 -40 1 -59 7 -11 12 -12 18 -3 6 9
8 -103 3 -157 -1 -13 -2 -13 -11 0 -6 8 -7 27 -4 42 3 15 0 29 -6 33 -8 5 -9
10 -2 14 6 3 7 20 4 36 l-6 30 -8 -30 c-6 -27 -7 -26 -3 7 2 21 0 40 -5 43 -4
3 -10 20 -12 40 -3 25 0 36 12 39 8 3 3 4 -12 2 -19 -2 -25 1 -21 11 6 15 53
18 53 3 0 -5 6 -10 14 -10 8 0 16 16 19 42 6 43 1 60 -11 43 -4 -6 -20 -11
-37 -13 -16 -2 -34 -7 -38 -11 -5 -5 3 -6 17 -4 14 3 26 1 26 -5 0 -14 -48
-21 -54 -7 -2 6 0 18 5 26 5 8 9 24 9 37 0 27 16 29 23 2 9 -36 40 -22 72 30
16 28 33 50 37 50 4 0 8 7 8 16 0 8 4 13 9 10 5 -3 48 65 96 152 48 86 109
191 134 232 64 102 83 145 76 172 -7 29 61 147 91 158 21 8 40 32 145 180 99
140 186 342 214 500 15 83 16 113 6 229 -7 74 -18 161 -26 195 -20 83 -20 85
18 84 17 -1 26 -3 20 -5 -7 -3 -13 -12 -13 -21 0 -12 3 -13 12 -4 21 21 29 13
13 -11 -16 -25 -11 -92 6 -81 5 3 9 0 9 -5 0 -6 5 -11 11 -11 6 0 1 16 -10 36
-12 20 -20 39 -17 41 3 3 13 -11 22 -31 13 -27 24 -36 43 -37 24 -2 24 -2 4
-6 -13 -2 -23 -9 -23 -14 0 -14 50 1 84 24 43 30 157 87 170 86 6 -1 22 3 36
9 21 9 22 11 6 11 -20 1 -20 1 0 16 22 17 38 20 29 5 -3 -5 -1 -10 5 -10 7 0
14 9 17 20 3 11 13 21 22 21 50 4 74 18 60 35 -13 16 2 19 17 4 8 -8 15 -6 24
5 7 8 22 15 34 15 35 0 126 66 126 92 0 6 11 8 30 5 17 -4 30 -2 30 3 0 6 -6
10 -12 10 -7 0 -23 3 -35 6 -18 5 -23 2 -23 -12 0 -16 -2 -15 -21 5 -11 12
-18 29 -15 37 7 17 26 10 26 -11 0 -10 9 -11 38 -4 20 5 58 9 85 9 47 0 47 -1
45 -30 -2 -22 -7 -29 -18 -26 -8 3 -26 8 -40 11 -22 6 -23 6 -10 -8 13 -14 63
-24 123 -26 10 -1 17 -7 16 -14 -3 -26 2 -33 24 -34 48 -3 67 7 67 32 0 21 -5
25 -29 25 -15 0 -49 3 -74 6 l-45 6 -4 49 c-3 46 -1 49 21 49 21 0 23 4 19 40
-4 40 -3 40 32 41 29 0 31 2 15 9 -16 7 -17 9 -3 9 33 2 68 -18 68 -39 0 -18
6 -20 80 -20 47 0 80 4 80 10 0 6 9 1 21 -11 16 -16 29 -20 51 -15 17 3 43 6
59 6 24 0 29 4 29 24 0 14 6 26 13 29 6 2 2 2 -10 0 -13 -2 -23 1 -23 7 0 5 5
10 11 10 5 0 7 5 4 10 -4 6 6 10 22 10 20 0 24 -3 14 -9 -9 -6 25 -7 87 -4 67
4 102 2 102 -4 0 -15 -69 -22 -99 -11 -35 13 -49 4 -44 -26 5 -23 10 -26 43
-26 32 0 39 -4 44 -23 2 -12 4 -3 3 19 l-2 42 50 7 c27 5 80 8 118 9 l67 0 0
2673 0 2673 -3878 0 -3878 0 -125 -127z m5532 -4023 l-6 -55 -13 78 c-13 85
-7 121 12 66 7 -20 10 -58 7 -89z m-713 -120 c-36 -82 -46 -88 -17 -9 11 30
22 60 24 67 2 6 9 12 14 12 5 0 -4 -32 -21 -70z m-46 -102 c-7 -7 -12 -8 -12
-2 0 14 12 26 19 19 2 -3 -1 -11 -7 -17z m1174 -470 c-8 -24 -19 -42 -25 -41
-26 6 -68 5 -86 -3 -39 -16 23 48 64 67 21 9 42 23 47 30 15 25 16 -9 0 -53z
m-1397 -115 c-56 -98 -182 -293 -227 -351 -10 -12 -39 -29 -65 -37 -26 -8 -47
-13 -47 -12 0 6 86 118 160 208 47 57 119 150 160 206 40 57 76 101 78 99 2
-3 -24 -53 -59 -113z m1241 47 c-33 -26 -48 -26 -25 0 10 11 25 20 34 20 12 0
9 -6 -9 -20z m-141 -37 c-19 -21 -36 -40 -39 -43 -3 -3 -18 -22 -33 -42 -42
-57 -50 -45 -12 18 30 50 103 119 114 108 3 -2 -11 -21 -30 -41z m236 -75 c-3
-18 -8 -89 -9 -158 -3 -118 9 -210 33 -257 5 -10 14 -36 20 -58 11 -36 28 -82
52 -140 4 -11 10 -36 13 -55 2 -19 14 -73 25 -120 20 -86 24 -167 16 -350 -3
-81 -11 -114 -49 -224 -54 -151 -100 -240 -204 -394 -97 -142 -159 -247 -165
-281 -19 -93 -28 -118 -60 -164 -41 -61 -127 -195 -142 -219 -100 -169 -168
-245 -243 -273 -26 -10 -54 -23 -62 -30 -41 -35 -92 -44 -243 -46 -84 -1 -192
3 -242 9 -146 18 -508 111 -715 185 -47 16 -110 35 -141 42 -87 19 -127 34
-219 81 -97 50 -125 54 -135 22 -3 -13 -9 -18 -11 -11 -3 7 -11 10 -18 7 -9
-4 -17 13 -25 56 -12 60 -48 116 -125 193 -40 40 -59 37 -32 -6 15 -23 19 -44
17 -89 -1 -23 -5 -26 -28 -24 -19 2 -29 10 -31 24 -2 15 -14 22 -45 28 -23 4
-48 7 -55 5 -7 -1 -33 5 -57 15 -32 12 -59 15 -97 10 -47 -5 -59 -3 -108 25
-48 27 -69 32 -171 40 -86 7 -132 16 -180 35 -71 29 -91 42 -84 55 3 4 -4 13
-15 19 -12 6 -20 21 -20 35 0 25 -23 35 -35 15 -3 -5 -10 -10 -15 -10 -17 0
-179 238 -217 320 -47 100 -67 156 -59 169 3 5 3 17 0 26 -5 12 -14 14 -34 10
-27 -6 -28 -5 -39 58 -6 35 -11 75 -11 88 0 14 -5 30 -11 36 -21 21 16 149 60
207 21 28 55 77 75 109 43 69 69 77 53 18 -12 -44 1 -118 20 -114 6 1 -4 -23
-22 -53 -40 -65 -49 -112 -43 -225 3 -70 6 -84 26 -99 20 -17 21 -20 6 -28
-20 -11 -12 -42 11 -42 8 0 45 27 80 60 35 33 67 60 70 60 10 0 -14 -38 -27
-43 -8 -2 -1 -15 20 -34 17 -17 32 -36 32 -43 0 -7 7 -10 15 -7 7 3 24 -3 37
-13 13 -11 17 -19 11 -20 -7 0 -13 5 -13 10 0 6 -5 10 -11 10 -8 0 -9 -17 -5
-54 6 -48 5 -54 -13 -59 -27 -7 -51 23 -66 80 -9 36 -17 48 -31 48 -27 0 -22
-60 12 -127 63 -127 114 -194 178 -237 59 -39 65 -40 97 -29 19 6 39 18 44 25
12 16 45 7 45 -12 0 -8 8 -16 19 -20 21 -6 196 38 217 56 18 15 18 59 0 59
-14 0 -73 -22 -113 -42 -11 -6 -27 -8 -35 -5 -8 3 -4 8 12 15 14 5 42 23 63
40 32 26 35 32 23 44 -7 8 -15 23 -18 34 -2 12 -19 24 -48 34 -98 33 -160 86
-160 137 0 30 2 33 19 24 16 -9 20 -7 25 13 3 13 3 45 -1 71 -6 46 -5 47 15
36 24 -13 62 -59 62 -75 0 -6 18 -21 40 -34 22 -12 40 -28 40 -35 0 -18 39
-39 61 -32 13 4 21 1 26 -11 4 -10 2 -19 -5 -22 -7 -2 -12 -11 -12 -20 0 -20
57 -250 66 -263 8 -13 58 -11 72 3 7 7 12 33 12 58 0 40 4 49 30 68 16 12 34
22 39 22 24 0 26 87 5 235 l-7 50 31 -32 c30 -30 32 -36 33 -110 1 -100 9
-127 37 -131 16 -3 23 3 27 25 13 62 68 223 76 223 5 0 9 -6 9 -14 0 -7 9 -16
19 -19 14 -3 18 -11 14 -26 -6 -25 13 -52 32 -45 15 6 24 29 50 120 l17 60
162 13 c158 13 216 27 216 54 0 34 -48 49 -70 22 -8 -10 -31 -15 -69 -15 -31
0 -81 -7 -111 -15 -55 -15 -110 -20 -110 -10 0 3 12 41 26 84 24 72 31 83 96
140 38 33 76 61 84 61 20 0 126 54 205 105 74 48 253 200 314 266 90 98 189
214 241 285 65 85 94 99 58 27 -13 -25 -24 -54 -24 -63 0 -9 -5 -21 -12 -28
-9 -9 -8 -12 6 -12 10 0 39 23 66 50 27 28 53 50 59 50 6 0 25 15 42 33 28 29
37 32 92 33 81 2 79 1 67 24 -6 10 -26 22 -45 26 l-35 6 29 37 c16 20 54 63
84 96 31 33 64 75 74 93 10 17 21 32 25 32 5 0 8 -53 8 -117 0 -114 -23 -244
-59 -336 -6 -16 -11 -45 -11 -66 0 -21 -9 -64 -20 -96 -24 -69 -25 -95 -6 -95
8 0 21 -9 30 -21 13 -20 16 -20 48 -5 32 16 83 59 181 154 26 26 45 38 41 28
-5 -12 -2 -23 7 -30 9 -6 18 -18 21 -27 4 -9 20 -21 37 -27 28 -10 33 -9 48
14 13 21 14 33 6 71 -10 44 -9 48 23 90 19 25 34 48 34 53 0 5 10 21 23 37 13
15 31 55 41 88 22 76 96 277 107 289 4 4 13 6 19 4 9 -3 8 -8 -4 -20 -20 -21
-20 -38 0 -53 15 -10 14 -15 -5 -50 -25 -47 -25 -48 -5 -90 15 -32 14 -35 -11
-85 -31 -61 -30 -95 3 -94 16 0 22 -5 22 -22 0 -28 14 -37 40 -29 22 7 120
200 120 236 0 31 39 76 119 136 77 58 179 123 193 123 5 0 6 -15 3 -32z m-404
-131 c-10 -9 -11 -8 -5 6 3 10 9 15 12 12 3 -3 0 -11 -7 -18z m-991 -131 c0
-2 -7 -9 -15 -16 -13 -11 -14 -10 -9 4 5 14 24 23 24 12z m2489 -37 c23 0 24
-1 6 -9 -17 -7 -17 -9 -2 -9 10 -1 17 -9 17 -20 0 -22 -15 -35 -45 -38 -90 -9
-133 -36 -78 -49 48 -10 49 -12 6 -13 -31 -1 -43 3 -43 13 0 9 -7 12 -20 9
-11 -3 -20 -9 -20 -14 0 -5 -9 -9 -20 -9 -23 0 -26 -19 -7 -40 10 -12 9 -12
-3 -3 -19 14 -64 -2 -54 -18 5 -8 -1 -10 -19 -7 -16 3 -31 0 -38 -8 -6 -7 -27
-18 -47 -25 -20 -6 -41 -18 -45 -25 -4 -8 -15 -14 -23 -14 -8 0 -25 -7 -39
-16 -18 -12 -28 -13 -45 -4 -11 6 -18 15 -15 20 3 4 1 18 -3 31 -8 20 1 33 67
97 41 40 77 69 79 62 2 -6 -1 -17 -8 -25 -12 -15 -5 -55 10 -55 23 0 60 25 60
41 0 10 19 34 43 54 71 61 141 87 216 79 24 -2 56 -4 70 -5z m116 -10 c-57
-11 -81 -11 -69 0 12 12 52 18 84 12 21 -4 19 -6 -15 -12z m75 -5 c0 -8 -5
-12 -10 -9 -6 4 -8 11 -5 16 9 14 15 11 15 -7z m270 1 c10 -12 9 -16 -5 -21
-10 -4 -21 -1 -26 7 -6 10 -9 5 -9 -16 l-1 -30 -19 24 c-11 13 -20 29 -20 37
0 19 64 18 80 -1z m-3206 -87 c-28 -49 -281 -323 -347 -377 -38 -30 -13 8 43
67 68 71 126 147 186 242 39 62 58 76 107 79 12 1 16 -3 11 -11z m2691 -8 c3
-5 -1 -10 -10 -10 -9 0 -13 5 -10 10 3 6 8 10 10 10 2 0 7 -4 10 -10z m-1852
-101 c4 -16 3 -18 -9 -8 -16 13 -19 29 -5 29 5 0 11 -9 14 -21z m1738 -6 c13
-16 12 -17 -3 -4 -10 7 -18 15 -18 17 0 8 8 3 21 -13z m-45 -28 c4 -8 1 -22
-6 -30 -14 -17 -40 -20 -40 -5 0 6 9 10 20 10 27 0 25 28 -2 33 l-23 4 23 2
c12 0 25 -6 28 -14z m-362 -20 c-14 -14 -29 -25 -34 -25 -6 0 -10 -4 -10 -10
0 -5 -5 -10 -10 -10 -6 0 -5 8 2 20 7 11 17 20 21 20 5 0 15 7 23 15 9 8 19
15 24 15 5 0 -2 -11 -16 -25z m303 19 c-3 -3 -12 -4 -19 -1 -8 3 -5 6 6 6 11
1 17 -2 13 -5z m-37 -19 c0 -8 -7 -15 -15 -15 -9 0 -12 6 -9 15 4 8 10 15 15
15 5 0 9 -7 9 -15z m-45 -34 c-6 -5 -25 10 -25 20 0 5 6 4 14 -3 8 -7 12 -15
11 -17z m75 9 c-8 -5 -22 -10 -30 -10 -13 0 -13 1 0 10 8 5 22 10 30 10 13 0
13 -1 0 -10z m-263 -26 c-3 -3 -12 -4 -19 -1 -8 3 -5 6 6 6 11 1 17 -2 13 -5z
m-87 -18 c-4 -4 -16 -4 -26 2 -16 9 -14 10 8 9 15 -1 23 -6 18 -11z m-62 -25
c-7 -11 -16 -18 -20 -15 -4 3 -2 11 5 19 18 21 29 18 15 -4z m125 12 c-7 -2
-19 -2 -25 0 -7 3 -2 5 12 5 14 0 19 -2 13 -5z m-184 -22 c9 -16 8 -18 -9 -14
-11 3 -25 11 -31 19 -9 11 -7 14 9 14 12 0 26 -9 31 -19z m131 -3 c0 -10 -4
-18 -10 -18 -5 0 -14 8 -19 18 -7 14 -6 18 10 18 12 0 19 -7 19 -18z m108 -5
c-2 -9 -10 -19 -18 -21 -13 -4 -13 -3 -2 10 10 13 10 17 0 21 -8 3 -6 6 5 6
12 1 17 -5 15 -16z m47 7 c3 -5 -1 -10 -10 -10 -9 0 -13 5 -10 10 3 6 8 10 10
10 2 0 7 -4 10 -10z m-258 -66 c-3 -3 -12 -4 -19 -1 -8 3 -5 6 6 6 11 1 17 -2
13 -5z m88 -24 c8 -13 -5 -13 -25 0 -13 8 -13 10 2 10 9 0 20 -4 23 -10z m-87
-12 c-3 -7 -11 -13 -18 -13 -7 0 -15 6 -17 13 -3 7 4 12 17 12 13 0 20 -5 18
-12z m58 -15 c-6 -6 -36 9 -36 18 0 5 9 4 20 -3 10 -7 18 -14 16 -15z m-26
-17 c0 -3 -4 -8 -10 -11 -5 -3 -10 -1 -10 4 0 6 5 11 10 11 6 0 10 -2 10 -4z
m-3990 -290 c0 -8 -9 -24 -20 -37 l-19 -24 9 35 c6 19 10 36 10 37 0 2 5 3 10
3 6 0 10 -6 10 -14z m200 -41 c0 -8 -6 -15 -14 -15 -8 0 -17 -6 -19 -12 -4 -9
-6 -8 -6 3 -1 16 17 39 31 39 4 0 8 -7 8 -15z m-368 -67 c-7 -7 -13 -23 -13
-37 -2 -23 -2 -24 -6 -4 -5 23 15 69 25 59 3 -4 0 -12 -6 -18z m283 -38 c-3
-5 -1 -10 4 -10 6 0 11 -4 11 -10 0 -5 -8 -10 -18 -10 -10 0 -28 -7 -40 -16
-30 -21 -28 -6 5 28 26 27 51 39 38 18z m230 -124 c15 -36 15 -37 -5 -26 -13
7 -20 21 -20 42 0 37 4 35 25 -16z m-527 -81 c0 -16 -2 -15 -8 5 -11 34 -11
60 0 35 5 -11 8 -29 8 -40z m1042 -45 c0 -5 -4 -10 -10 -10 -5 0 -10 5 -10 10
0 6 5 10 10 10 6 0 10 -4 10 -10z m-740 -74 c0 -2 3 -11 6 -20 5 -13 2 -13
-19 -3 -26 12 -27 27 -1 27 8 0 14 -2 14 -4z m42 -38 c-15 -15 -26 -4 -18 18
5 13 9 15 18 6 9 -9 9 -15 0 -24z m56 -56 c3 -9 -2 -13 -14 -10 -9 1 -19 9
-22 16 -3 9 2 13 14 10 9 -1 19 -9 22 -16z m-257 -575 c-10 -9 -11 -8 -5 6 3
10 9 15 12 12 3 -3 0 -11 -7 -18z m324 3 c4 -6 -8 -10 -29 -10 -29 0 -36 -4
-36 -19 0 -25 -11 -32 -38 -24 -28 7 -29 33 -2 33 11 0 23 7 26 15 7 17 69 21
79 5z m175 -25 c33 -19 8 -19 -36 0 -19 8 -41 12 -49 9 -8 -4 -15 -1 -15 6 0
15 62 5 100 -15z m-528 -34 c-9 -22 -20 -35 -23 -29 -4 6 -9 4 -12 -5 -3 -8
-1 -19 5 -25 6 -6 6 -22 -1 -48 -6 -22 -11 -58 -11 -81 0 -47 -19 -60 -21 -15
-1 21 -2 22 -6 7 -3 -11 -8 -22 -12 -25 -4 -3 -12 -16 -18 -30 -10 -22 -11
-19 -7 22 4 40 2 47 -11 42 -8 -3 -15 -1 -15 5 0 6 5 11 11 11 5 0 7 4 4 10
-3 5 6 27 22 47 15 21 28 40 30 42 2 2 6 1 10 -3 4 -4 0 -12 -10 -17 -9 -6
-17 -18 -17 -27 0 -13 5 -11 26 9 23 23 25 29 14 50 -11 19 -10 25 7 39 11 9
25 26 32 38 19 36 21 25 3 -17z m-192 9 c0 -5 -5 -10 -11 -10 -5 0 -7 5 -4 10
3 6 8 10 11 10 2 0 4 -4 4 -10z m4 -46 c4 -9 -1 -28 -10 -41 -18 -29 -31 -24
-15 6 8 13 8 22 1 26 -11 7 -4 25 10 25 4 0 11 -7 14 -16z m299 -15 c-8 -16
-18 -28 -21 -25 -7 7 18 56 29 56 4 0 1 -14 -8 -31z m-364 -2 c-24 -23 -39
-25 -39 -5 0 6 3 9 6 5 4 -3 13 0 21 8 8 8 19 15 25 15 6 0 0 -10 -13 -23z
m16 -27 c-15 -29 -35 -40 -35 -20 0 8 39 50 47 50 2 0 -3 -13 -12 -30z m1092
24 c-3 -3 -12 -4 -19 -1 -8 3 -5 6 6 6 11 1 17 -2 13 -5z m189 -42 c-9 -8 -26
10 -26 26 1 15 2 15 15 -2 8 -11 13 -21 11 -24z m-980 -6 c18 -19 18 -27 0
-20 -9 4 -16 -3 -19 -18 -3 -15 -5 -10 -6 15 -1 40 3 44 25 23z m-351 -6 c-4
-6 -1 -17 5 -25 9 -11 7 -14 -9 -12 -12 1 -21 3 -21 5 0 8 21 42 26 42 3 0 2
-5 -1 -10z m399 -5 c3 -8 1 -15 -4 -15 -6 0 -10 7 -10 15 0 8 2 15 4 15 2 0 6
-7 10 -15z m-358 -72 c-8 -15 -15 -23 -16 -16 0 17 -31 4 -48 -19 -7 -10 -20
-18 -28 -18 -8 0 -14 -10 -14 -22 0 -20 1 -21 16 -7 19 20 64 13 64 -9 0 -12
-3 -13 -12 -4 -8 8 -17 8 -30 1 -11 -6 -26 -8 -33 -5 -17 6 -30 -10 -15 -19 5
-3 10 -12 10 -18 0 -7 -7 -4 -14 6 -18 24 -29 21 -20 -5 6 -20 5 -21 -10 -9
-22 19 -20 30 10 43 23 11 25 17 21 48 -3 19 -3 29 0 23 7 -18 28 -16 44 4 13
15 12 16 -9 11 -12 -4 -20 -2 -16 3 3 5 20 9 37 9 38 0 51 8 61 35 5 12 10 15
13 8 2 -6 -3 -24 -11 -40z m389 11 c18 -43 18 -44 5 -44 -5 0 -10 8 -10 18 0
15 -2 15 -11 2 -8 -12 -9 -10 -4 8 5 17 1 28 -12 37 -17 13 -17 14 -1 15 11 0
24 -14 33 -36z m-425 6 c0 -5 -4 -10 -10 -10 -5 0 -10 5 -10 10 0 6 5 10 10
10 6 0 10 -4 10 -10z m89 -34 c0 -6 -3 -5 -6 3 -4 11 -7 11 -14 0 -12 -19 -19
-7 -12 20 6 23 7 23 20 6 7 -11 13 -24 12 -29z m275 38 c17 -7 22 -34 6 -34
-5 0 -14 9 -20 20 -12 22 -10 23 14 14z m-47 -26 c-3 -8 -6 -5 -6 6 -1 11 2
17 5 13 3 -3 4 -12 1 -19z m-174 0 c3 -8 -4 -13 -19 -13 -28 0 -32 11 -6 18 9
3 18 5 18 6 1 0 4 -5 7 -11z m448 -124 c68 -83 69 -86 23 -44 -27 25 -52 51
-57 58 -4 7 -18 22 -30 35 -12 13 -31 33 -41 45 l-20 23 27 -14 c14 -8 59 -54
98 -103z m-397 -6 c6 -31 4 -38 -10 -38 -11 0 -14 5 -10 16 3 9 6 27 6 41 0
35 6 27 14 -19z m129 22 c-3 -10 4 -32 15 -47 24 -35 37 -89 23 -98 -7 -4 -11
5 -11 23 0 16 -11 46 -25 66 -20 29 -23 41 -15 57 14 24 20 24 13 -1z m50 -10
c3 -11 1 -20 -4 -20 -5 0 -9 9 -9 20 0 11 2 20 4 20 2 0 6 -9 9 -20z m67 0 c0
-5 -4 -10 -10 -10 -5 0 -10 5 -10 10 0 6 5 10 10 10 6 0 10 -4 10 -10z m-576
-26 c20 -8 21 -20 2 -27 -10 -4 -13 -1 -9 9 3 7 0 14 -6 14 -6 0 -11 -5 -11
-12 0 -6 -3 -9 -6 -5 -3 3 -3 10 1 16 7 13 8 13 29 5z m51 -23 c-3 -6 -11 -11
-16 -11 -5 0 -4 6 3 14 14 16 24 13 13 -3z m-135 5 c0 -2 -8 -10 -17 -17 -16
-13 -17 -12 -4 4 13 16 21 21 21 13z m32 -37 c-23 -26 -34 -24 -21 5 7 14 17
22 24 19 11 -3 10 -9 -3 -24z m578 11 c0 -5 -2 -10 -4 -10 -3 0 -8 5 -11 10
-3 6 -1 10 4 10 6 0 11 -4 11 -10z m-122 -41 c46 -34 51 -52 7 -23 -31 20 -74
25 -92 11 -15 -11 -17 2 -3 23 7 12 12 12 22 2 17 -17 33 -15 18 3 -21 25 4
17 48 -16z m-505 -6 c-4 -11 -3 -14 5 -9 18 11 14 -3 -5 -22 -16 -16 -16 -16
-10 1 3 9 2 17 -4 17 -6 0 -13 -8 -16 -18 -5 -20 -43 -48 -43 -32 0 5 5 10 10
10 6 0 10 5 10 12 0 7 12 22 28 35 33 27 33 27 25 6z m57 -3 c0 -5 -5 -10 -11
-10 -5 0 -7 5 -4 10 3 6 8 10 11 10 2 0 4 -4 4 -10z m370 -30 c0 -5 -5 -10
-11 -10 -5 0 -7 5 -4 10 3 6 8 10 11 10 2 0 4 -4 4 -10z m100 -37 c0 -22 -8
-14 -19 20 -10 29 -9 30 4 13 8 -11 15 -26 15 -33z m280 7 c0 -5 -4 -10 -10
-10 -5 0 -10 5 -10 10 0 6 5 10 10 10 6 0 10 -4 10 -10z m-380 -10 c0 -5 -2
-10 -4 -10 -3 0 -8 5 -11 10 -3 6 -1 10 4 10 6 0 11 -4 11 -10z m135 -30 c-12
-19 -22 -10 -17 16 4 22 6 24 14 10 5 -9 6 -21 3 -26z m-644 3 c13 -16 12 -17
-3 -4 -17 13 -22 21 -14 21 2 0 10 -8 17 -17z m3526 -29 c-1 -29 -3 -33 -12
-20 -9 12 -14 13 -23 4 -21 -21 -13 0 11 26 12 14 23 26 24 26 0 0 1 -16 0
-36z m-3030 4 c-3 -8 -6 -5 -6 6 -1 11 2 17 5 13 3 -3 4 -12 1 -19z m-512 -41
c11 -11 8 -14 -15 -14 -22 0 -25 3 -16 13 14 17 15 17 31 1z m525 -8 c0 -6 -4
-7 -10 -4 -5 3 -10 11 -10 16 0 6 5 7 10 4 6 -3 10 -11 10 -16z m2940 8 c0 -7
9 -13 20 -14 11 -1 20 2 20 8 0 5 4 9 8 9 5 0 7 -12 4 -28 -2 -19 3 -33 17
-46 13 -12 21 -31 21 -50 0 -24 -3 -28 -10 -16 -8 11 -9 9 -5 -10 7 -31 -7
-82 -23 -88 -7 -2 -12 5 -12 17 0 29 -30 27 -31 -1 0 -13 -3 -17 -6 -10 -7 17
-23 15 -23 -3 0 -8 4 -15 10 -15 5 0 16 -12 24 -27 13 -25 15 -26 22 -9 4 11
2 21 -7 27 -10 6 -10 9 -1 9 15 0 52 -36 53 -52 0 -7 4 -4 9 7 4 11 4 24 -1
30 -16 16 -10 64 9 74 14 7 17 4 18 -20 1 -16 -3 -29 -7 -29 -5 0 -9 -4 -9
-10 0 -5 8 -6 18 -3 16 6 16 6 0 -10 -18 -19 -28 -81 -26 -177 1 -50 3 -58 8
-35 6 24 8 18 9 -29 0 -32 -4 -76 -10 -97 -10 -32 -15 -37 -30 -29 -25 14 -49
-13 -49 -53 0 -18 -4 -47 -9 -64 -17 -60 21 -141 53 -114 11 9 15 8 20 -5 6
-17 -11 -92 -26 -109 -4 -5 -8 -14 -8 -20 0 -5 5 -3 11 5 8 11 9 8 4 -15 -3
-16 -11 -34 -17 -40 -8 -7 -9 -5 -5 8 5 13 -1 23 -23 35 -17 10 -32 28 -36 45
-6 27 -47 57 -79 57 -13 0 -15 27 -15 213 0 116 -3 243 -7 281 -6 67 -6 69 15
64 26 -7 28 4 7 26 -8 8 -15 26 -15 40 0 29 -30 53 -78 62 -26 5 -38 2 -55
-15 -12 -12 -39 -37 -60 -56 -21 -18 -68 -80 -106 -138 -63 -99 -101 -147
-101 -132 0 4 9 20 20 36 17 23 19 33 10 49 -6 11 -10 62 -9 118 3 111 20 154
93 229 38 39 42 41 59 26 9 -9 32 -16 52 -15 26 1 39 -5 55 -25 11 -14 20 -32
20 -40 0 -25 45 -11 48 15 6 40 -16 76 -64 106 -43 27 -45 30 -28 43 13 9 33
12 64 8 68 -10 67 -9 79 -72 7 -32 15 -65 19 -73 5 -8 8 -30 7 -47 l-1 -33 22
21 c14 13 24 17 29 10 11 -19 25 -2 25 30 0 18 4 28 10 24 16 -10 12 12 -6 29
-14 15 -13 16 10 16 29 0 36 29 12 49 -12 10 -15 8 -18 -11 -2 -13 -7 -21 -13
-18 -11 6 -12 25 -1 58 6 19 4 22 -16 21 -18 0 -20 -2 -6 -7 12 -5 15 -11 8
-22 -8 -13 -11 -12 -24 5 -11 15 -11 22 -3 27 19 12 57 9 57 -5z m88 -32 c-3
-3 -9 2 -12 12 -6 14 -5 15 5 6 7 -7 10 -15 7 -18z m-2999 -26 c0 8 3 12 6 10
2 -3 2 -15 -2 -28 -8 -31 -23 -7 -22 34 l1 30 8 -30 c4 -16 8 -24 9 -16z m321
32 c0 -5 -9 -11 -19 -14 -12 -3 -21 -16 -24 -33 -3 -22 -4 -18 -6 14 -1 39 1
42 24 42 14 0 25 -4 25 -9z m-363 -43 c-3 -7 -5 -2 -5 12 0 14 2 19 5 13 2 -7
2 -19 0 -25z m153 11 c0 -11 -4 -18 -10 -14 -5 3 -7 12 -3 20 7 21 13 19 13
-6z m2295 11 c-3 -5 -11 -10 -16 -10 -6 0 -7 5 -4 10 3 6 11 10 16 10 6 0 7
-4 4 -10z m-2355 -106 c0 -6 -14 -11 -30 -12 -18 0 -28 3 -24 10 3 5 15 8 25
5 23 -6 26 18 4 30 -9 6 -12 17 -8 32 5 21 7 20 19 -15 8 -22 14 -44 14 -50z
m136 22 c-1 -30 -4 -52 -8 -49 -5 2 -8 -1 -8 -8 0 -7 -9 -1 -20 11 -23 27 -23
51 0 57 12 4 12 3 1 -5 -10 -7 -11 -14 -2 -31 13 -24 26 -29 17 -6 -3 8 0 15
5 15 7 0 9 9 6 21 -5 18 0 49 8 49 1 0 1 -24 1 -54z m2831 12 c-3 -7 -5 -2 -5
12 0 14 2 19 5 13 2 -7 2 -19 0 -25z m-3027 7 c9 -11 10 -15 1 -15 -7 0 -19 7
-27 15 -13 13 -13 15 -1 15 8 0 20 -7 27 -15z m150 11 c0 -2 -7 -6 -15 -10 -8
-3 -15 -1 -15 4 0 6 7 10 15 10 8 0 15 -2 15 -4z m2967 -38 c-3 -8 -6 -5 -6 6
-1 11 2 17 5 13 3 -3 4 -12 1 -19z m-2812 -18 c-3 -5 -10 -10 -16 -10 -5 0 -9
5 -9 10 0 6 7 10 16 10 8 0 12 -4 9 -10z m-187 -103 c16 -34 37 -84 47 -112
10 -27 22 -54 27 -60 4 -5 8 -16 8 -24 0 -17 61 -143 73 -152 8 -6 37 -57 37
-65 0 -2 -6 -1 -13 2 -7 2 -28 37 -47 76 -27 56 -35 67 -41 52 -6 -13 -7 -8
-6 16 1 25 -2 34 -11 32 -8 -1 -11 2 -7 8 4 6 -6 38 -21 71 -21 45 -30 56 -36
44 -10 -17 -48 -21 -48 -4 0 5 4 8 8 5 4 -2 14 -1 21 3 10 6 9 12 -4 25 -9 9
-13 16 -8 16 5 0 14 -5 21 -12 9 -9 12 -9 12 0 0 6 -13 18 -30 27 -29 15 -40
35 -20 35 6 0 3 11 -6 25 -16 24 -11 71 6 60 5 -3 22 -33 38 -68z m-798 53 c0
-5 -5 -10 -11 -10 -5 0 -7 5 -4 10 3 6 8 10 11 10 2 0 4 -4 4 -10z m690 -36
c0 -8 -7 -14 -15 -14 -15 0 -21 21 -9 33 10 9 24 -2 24 -19z m-730 -4 c0 -5
-5 -10 -11 -10 -5 0 -7 5 -4 10 3 6 8 10 11 10 2 0 4 -4 4 -10z m786 -66 c12
-10 12 -12 -3 -16 -15 -4 -18 2 -19 31 -1 20 0 27 3 16 3 -11 11 -25 19 -31z
m-826 26 c0 -5 -5 -10 -11 -10 -5 0 -7 5 -4 10 3 6 8 10 11 10 2 0 4 -4 4 -10z
m3806 -45 c-3 -24 -10 -52 -16 -62 -8 -14 -10 -8 -5 27 12 85 28 113 21 35z
m-4086 2 c0 -2 -12 -14 -27 -28 l-28 -24 24 28 c23 25 31 32 31 24z m355 -127
l8 -25 -21 20 c-17 17 -19 28 -14 75 l6 55 7 -50 c4 -27 10 -61 14 -75z m-85
84 c0 -8 -5 -12 -10 -9 -6 4 -8 11 -5 16 9 14 15 11 15 -7z m3410 8 c0 -4 -5
-13 -10 -18 -6 -6 -23 -49 -38 -96 -15 -47 -31 -86 -37 -87 -5 -1 -13 12 -18
30 -7 25 -3 38 17 70 14 21 26 41 26 45 0 3 10 19 23 34 22 29 37 37 37 22z
m-2503 -34 c-3 -8 -6 -5 -6 6 -1 11 2 17 5 13 3 -3 4 -12 1 -19z m-32 -8 c3
-5 -1 -10 -10 -10 -9 0 -13 5 -10 10 3 6 8 10 10 10 2 0 7 -4 10 -10z m-1225
-3 c0 -2 -12 -14 -27 -28 l-28 -24 24 28 c23 25 31 32 31 24z m1280 -17 c0 -5
-4 -10 -10 -10 -5 0 -10 5 -10 10 0 6 5 10 10 10 6 0 10 -4 10 -10z m-23 -42
c-3 -8 -6 -5 -6 6 -1 11 2 17 5 13 3 -3 4 -12 1 -19z m-870 -18 c-3 -11 -1
-20 4 -20 5 0 9 -4 9 -10 0 -5 -6 -10 -14 -10 -8 0 -17 -6 -20 -12 -3 -7 -3
-3 0 10 3 12 1 22 -5 22 -6 0 -3 9 6 20 10 11 19 20 21 20 3 0 2 -9 -1 -20z
m-467 7 c0 -2 -10 -12 -22 -23 l-23 -19 19 23 c18 21 26 27 26 19z m808 -28
c-21 -5 -47 -5 -59 -1 -15 6 -4 9 37 9 55 1 56 0 22 -8z m32 -18 c0 -20 -104
-29 -116 -10 -4 8 5 9 32 5 22 -3 46 -2 54 4 19 12 30 13 30 1z m480 -11 c0
-5 -4 -10 -10 -10 -5 0 -10 5 -10 10 0 6 5 10 10 10 6 0 10 -4 10 -10z m-337
-17 c-13 -2 -33 -2 -45 0 -13 2 -3 4 22 4 25 0 35 -2 23 -4z m-146 -9 c-3 -3
-12 -4 -19 -1 -8 3 -5 6 6 6 11 1 17 -2 13 -5z m589 -16 c4 -6 3 -8 -4 -4 -6
3 -12 -3 -15 -16 -4 -20 -4 -19 -6 5 -1 28 12 36 25 15z m-109 -20 c-3 -8 -6
-5 -6 6 -1 11 2 17 5 13 3 -3 4 -12 1 -19z m-370 6 c-3 -3 -12 -4 -19 -1 -8 3
-5 6 6 6 11 1 17 -2 13 -5z m81 -1 c-10 -2 -26 -2 -35 0 -10 3 -2 5 17 5 19 0
27 -2 18 -5z m52 -23 c0 -5 -7 -10 -15 -10 -8 0 -15 5 -15 10 0 6 7 10 15 10
8 0 15 -4 15 -10z m370 -35 c0 -5 -5 -3 -10 5 -5 8 -10 20 -10 25 0 6 5 3 10
-5 5 -8 10 -19 10 -25z m-1610 12 c0 -2 -12 -14 -27 -28 l-28 -24 24 28 c23
25 31 32 31 24z m1580 -17 c0 -5 -8 -10 -17 -10 -15 0 -16 2 -3 10 19 12 20
12 20 0z m67 -26 c-3 -3 -12 -4 -19 -1 -8 3 -5 6 6 6 11 1 17 -2 13 -5z m23
-19 c-7 -8 -18 -15 -24 -15 -6 0 -2 7 8 15 25 19 32 19 16 0z m-1770 -30 c-7
-8 -17 -15 -23 -15 -6 0 -2 7 9 15 25 19 30 19 14 0z m1783 8 c-7 -2 -13 -13
-13 -23 0 -10 -4 -22 -10 -25 -13 -8 -8 38 5 47 6 4 15 7 20 7 6 0 4 -3 -2 -6z
m-53 -60 c0 -7 -3 -13 -7 -13 -11 0 -32 48 -25 55 8 8 32 -24 32 -42z m70 27
c0 -11 -4 -20 -9 -20 -5 0 -7 9 -4 20 3 11 7 20 9 20 2 0 4 -9 4 -20z m28 -82
c-8 -22 -13 -27 -22 -18 -8 8 -7 13 3 19 9 6 12 19 8 37 -5 26 -4 27 8 10 10
-13 11 -25 3 -48z m-48 31 c0 -8 5 -8 15 1 19 16 20 3 1 -15 -10 -10 -16 -11
-25 -2 -14 14 -14 27 -1 27 6 0 10 -5 10 -11z m9 -87 c0 -14 -2 -13 -9 3 -4
12 -15 27 -24 34 -9 7 -16 19 -16 25 0 6 12 -2 25 -17 14 -15 25 -36 24 -45z
m102 -2 c-17 -11 -31 -72 -20 -91 5 -11 14 -17 20 -14 5 4 9 -1 9 -10 0 -13
-4 -14 -20 -5 -11 6 -20 17 -20 25 0 7 -5 15 -11 17 -7 2 -7 12 1 32 6 16 9
35 6 42 -3 8 1 11 10 7 14 -5 14 -3 3 16 -8 11 -17 21 -21 21 -5 0 -8 8 -8 18
0 12 8 8 30 -18 16 -19 26 -37 21 -40z m-2036 10 c-3 -5 -12 -10 -20 -10 -12
0 -30 -27 -27 -42 1 -5 -2 -8 -8 -8 -19 0 -10 29 16 49 28 22 50 28 39 11z
m1978 -23 c-7 -11 -23 2 -23 19 0 12 2 12 14 2 8 -7 12 -16 9 -21z m80 -12 c4
-8 3 -16 -1 -19 -4 -3 -9 4 -9 15 -2 23 3 25 10 4z m-2053 -9 c0 -11 -19 -15
-25 -6 -3 5 1 10 9 10 9 0 16 -2 16 -4z m-60 -44 c0 -2 -7 1 -16 6 -9 5 -26 7
-38 4 -20 -4 -20 -4 -2 10 17 13 21 13 38 -1 10 -8 18 -17 18 -19z m2156 -7
c10 -19 23 -35 29 -35 5 0 3 -5 -5 -10 -11 -7 -17 -4 -23 13 -5 12 -7 23 -5
23 2 1 -6 11 -16 23 -11 12 -15 21 -9 21 5 0 18 -16 29 -35z m-56 9 c0 -8 -4
-12 -10 -9 -5 3 -10 10 -10 16 0 5 5 9 10 9 6 0 10 -7 10 -16z m-2190 -9 c-7
-9 -15 -13 -19 -10 -3 3 1 10 9 15 21 14 24 12 10 -5z m20 -30 c-7 -8 -19 -15
-28 -15 -11 0 -9 6 9 23 25 23 40 17 19 -8z m-64 0 c-11 -8 -24 -15 -30 -15
-5 0 -1 7 10 15 10 8 24 14 29 14 6 0 1 -6 -9 -14z m74 -31 c0 -8 -5 -12 -10
-9 -6 4 -8 11 -5 16 9 14 15 11 15 -7z m2170 -4 c0 -5 -5 -10 -11 -10 -5 0 -7
5 -4 10 3 6 8 10 11 10 2 0 4 -4 4 -10z m76 -5 c-12 -9 -16 -20 -12 -31 5 -14
4 -15 -9 -4 -21 17 -19 29 8 40 31 13 35 11 13 -5z m-2396 1 c0 -11 -19 -15
-25 -6 -3 5 1 10 9 10 9 0 16 -2 16 -4z m47 -2 c-3 -3 -12 -4 -19 -1 -8 3 -5
6 6 6 11 1 17 -2 13 -5z m61 -1 c-10 -2 -26 -2 -35 0 -10 3 -2 5 17 5 19 0 27
-2 18 -5z m-128 -28 c7 -8 8 -15 2 -15 -5 0 -15 7 -22 15 -7 8 -8 15 -2 15 5
0 15 -7 22 -15z m-23 -32 c-3 -3 -13 1 -21 10 -8 8 -12 17 -9 20 3 3 12 -1 20
-9 9 -8 13 -18 10 -21z m2504 5 c19 -21 23 -28 16 -28 -7 0 -47 37 -47 44 0
12 13 6 31 -16z m-2567 0 c-5 -7 -2 -9 9 -5 9 3 21 -1 29 -10 11 -15 11 -16
-5 -10 -10 4 -25 7 -33 7 -8 0 -14 7 -14 15 0 8 5 15 11 15 5 0 7 -5 3 -12z
m2526 6 c0 -3 -7 -12 -15 -20 -12 -13 -15 -13 -15 -1 0 7 3 17 7 20 8 8 23 9
23 1z m-2565 -24 c-27 -12 -43 -12 -25 0 8 5 22 9 30 9 10 0 8 -3 -5 -9z m-55
-19 c0 -5 -11 -12 -25 -15 -14 -4 -25 -13 -25 -21 0 -8 -6 -12 -14 -9 -7 3
-16 -2 -20 -11 -4 -11 -12 -15 -22 -11 -17 7 -63 -31 -60 -48 2 -6 1 -8 -1 -3
-7 11 -33 9 -33 -3 0 -5 -9 -10 -19 -10 -28 0 -52 -11 -45 -21 3 -5 -2 -6 -10
-3 -9 3 -16 1 -16 -6 0 -6 -4 -9 -9 -5 -5 3 -16 -2 -24 -10 -9 -8 -23 -15 -31
-15 -9 0 -16 -4 -16 -10 0 -5 5 -10 12 -10 6 0 8 -3 5 -6 -4 -4 -13 -1 -22 6
-12 10 -13 16 -4 26 6 8 16 14 22 14 5 0 15 7 21 14 6 8 47 34 91 57 44 23 85
45 91 50 9 8 130 55 147 58 4 0 7 -3 7 -8z m457 -13 c-3 -8 -6 -5 -6 6 -1 11
2 17 5 13 3 -3 4 -12 1 -19z m2233 2 c0 -5 -2 -10 -4 -10 -3 0 -8 5 -11 10 -3
6 -1 10 4 10 6 0 11 -4 11 -10z m-2660 -20 c0 -5 -17 -10 -37 -9 -34 1 -35 2
-13 9 36 11 50 11 50 0z m2740 -85 c-1 -5 -5 -2 -11 8 -5 9 -15 17 -22 17 -7
0 -18 12 -24 27 -22 47 -14 47 22 2 19 -24 35 -48 35 -54z m-80 58 c0 -15 -2
-16 -10 -3 -8 13 -10 13 -10 -2 0 -11 -5 -15 -15 -12 -8 4 -15 1 -15 -7 0 -7
-3 -10 -6 -7 -3 3 1 15 8 27 16 26 48 28 48 4z m-2670 -3 c-8 -5 -19 -10 -25
-10 -5 0 -3 5 5 10 8 5 20 10 25 10 6 0 3 -5 -5 -10z m470 0 c0 -5 -7 -10 -16
-10 -8 0 -12 5 -9 10 3 6 10 10 16 10 5 0 9 -4 9 -10z m-535 -10 c-3 -5 -14
-10 -23 -10 -15 0 -15 2 -2 10 20 13 33 13 25 0z m845 -34 c0 -3 -4 -8 -10
-11 -5 -3 -10 -1 -10 4 0 6 5 11 10 11 6 0 10 -2 10 -4z m1894 -11 c-4 -8 -10
-15 -15 -15 -5 0 -9 7 -9 15 0 8 7 15 15 15 9 0 12 -6 9 -15z m-2751 -2 c4 -3
-1 -12 -11 -19 -20 -15 -86 -19 -77 -4 3 5 12 7 19 4 8 -3 20 2 27 10 15 16
32 20 42 9z m2807 -6 c0 -7 -13 -18 -30 -24 -36 -13 -38 -8 -7 18 26 22 37 24
37 6z m-2050 -7 c0 -5 -7 -10 -15 -10 -8 0 -15 5 -15 10 0 6 7 10 15 10 8 0
15 -4 15 -10z m2106 -26 c12 -17 14 -28 7 -35 -7 -7 -13 -1 -18 18 -3 15 -12
31 -18 35 -9 6 -9 8 0 8 7 0 20 -11 29 -26z m-3018 -20 c-3 -14 -5 -12 -10 9
-3 19 -2 25 4 19 6 -6 8 -18 6 -28z m830 19 c-2 -11 -14 -19 -28 -21 l-25 -2
25 15 25 16 -35 -5 c-25 -4 -31 -3 -20 4 26 17 62 12 58 -7z m-313 -3 c18 -8
18 -9 -5 -9 -14 0 -32 4 -40 9 -12 8 -12 10 5 9 11 0 29 -4 40 -9z m3581 -66
c35 -39 119 -84 158 -84 20 0 36 -2 36 -5 0 -13 -25 -55 -33 -55 -5 0 -7 -13
-3 -30 3 -19 2 -29 -4 -25 -6 3 -10 17 -10 31 0 24 -14 32 -25 14 -11 -18 -40
-11 -50 13 -7 15 -20 23 -43 25 -24 2 -31 7 -25 15 11 15 -10 81 -22 70 -4 -5
-6 -1 -3 8 4 9 2 22 -3 30 -7 11 -9 8 -9 -9 0 -14 -4 -21 -11 -16 -8 4 -9 -1
-4 -17 5 -19 4 -21 -5 -9 -9 12 -10 9 -6 -15 5 -22 4 -26 -4 -15 -5 8 -10 11
-11 5 -3 -20 -5 -30 -11 -45 -4 -8 -9 -22 -11 -30 -3 -8 -6 -4 -6 10 0 14 8
45 19 69 11 24 20 48 20 53 0 5 7 16 15 24 9 10 13 25 10 42 -6 26 -5 26 8 -3
8 -16 23 -39 33 -51z m-3488 59 c-10 -2 -26 -2 -35 0 -10 3 -2 5 17 5 19 0 27
-2 18 -5z m2382 -12 c0 -10 -6 -21 -13 -24 -10 -4 -13 2 -9 19 5 28 22 32 22
5z m-2336 -2 c-52 -15 -188 -27 -198 -18 -6 5 11 9 40 10 27 0 72 4 99 9 68
10 96 10 59 -1z m111 1 c8 -13 -15 -13 -35 0 -12 8 -11 10 7 10 12 0 25 -4 28
-10z m2169 -34 c-6 -16 -8 -17 -16 -2 -11 19 0 42 13 29 6 -6 7 -18 3 -27z
m-2211 17 c-7 -2 -19 -2 -25 0 -7 3 -2 5 12 5 14 0 19 -2 13 -5z m2343 -31
c-9 -8 -26 10 -26 26 1 15 2 15 15 -2 8 -11 13 -21 11 -24z m-3241 5 c6 -5 3
-7 -7 -3 -27 8 -48 -4 -49 -28 -1 -19 -2 -19 -6 -2 -5 20 36 62 47 48 3 -4 10
-11 15 -15z m110 13 c-3 -5 -12 -10 -20 -10 -8 0 -17 5 -20 10 -4 6 5 10 20
10 15 0 24 -4 20 -10z m483 -6 c19 -13 33 -13 99 -4 43 7 98 14 123 16 44 3
44 3 10 -6 -19 -5 -55 -12 -80 -15 -25 -3 -72 -11 -104 -17 -46 -9 -61 -9 -64
0 -2 7 -10 12 -18 12 -8 0 -11 6 -8 15 8 19 14 19 42 -1z m-345 -21 c-7 -2
-21 -2 -30 0 -10 3 -4 5 12 5 17 0 24 -2 18 -5z m95 0 c-10 -2 -26 -2 -35 0
-10 3 -2 5 17 5 19 0 27 -2 18 -5z m72 -3 c0 -5 -12 -10 -27 -9 -25 0 -26 1
-8 9 27 12 35 12 35 0z m60 0 c-20 -13 -33 -13 -25 0 3 6 14 10 23 10 15 0 15
-2 2 -10z m-482 -55 c0 -16 -2 -15 -8 5 -11 34 -11 60 0 35 5 -11 8 -29 8 -40z
m3242 51 c0 -3 -4 -8 -10 -11 -5 -3 -10 -1 -10 4 0 6 5 11 10 11 6 0 10 -2 10
-4z m60 -41 c14 -16 18 -24 9 -17 -12 9 -18 9 -28 -1 -11 -10 -12 -8 -7 10 4
12 2 24 -4 28 -5 3 -10 -2 -10 -11 0 -13 -3 -15 -11 -7 -8 8 -8 15 2 26 8 9
16 12 19 9 3 -4 16 -20 30 -37z m-2956 27 c3 -4 -11 -9 -30 -9 -19 -1 -34 3
-34 8 0 11 57 12 64 1z m199 1 c-7 -2 -19 -2 -25 0 -7 3 -2 5 12 5 14 0 19 -2
13 -5z m2596 -32 c-2 -6 -10 2 -17 17 -11 25 -11 25 4 10 9 -9 15 -21 13 -27z
m-2959 19 c0 -5 -4 -10 -10 -10 -5 0 -10 5 -10 10 0 6 5 10 10 10 6 0 10 -4
10 -10z m73 3 c-7 -2 -19 -2 -25 0 -7 3 -2 5 12 5 14 0 19 -2 13 -5z m192 -2
c-11 -10 -95 -26 -95 -17 0 7 58 24 85 25 11 1 15 -3 10 -8z m2799 -34 c7 -6
6 -7 -4 -4 -8 2 -16 12 -17 23 -2 13 -1 15 4 4 3 -8 11 -19 17 -23z m-3358 -1
c2 -14 1 -14 -3 0 -3 9 -11 13 -19 10 -9 -3 -12 -1 -9 5 10 15 30 5 31 -15z
m449 14 c-3 -5 -15 -10 -26 -10 -10 0 -19 5 -19 10 0 6 12 10 26 10 14 0 23
-4 19 -10z m3911 -38 c-11 -10 -15 4 -8 28 l7 25 3 -23 c2 -13 1 -26 -2 -30z
m-4306 28 c0 -5 -5 -10 -11 -10 -5 0 -7 5 -4 10 3 6 8 10 11 10 2 0 4 -4 4
-10z m330 1 c0 -17 -160 -32 -200 -19 -25 8 -25 8 2 4 15 -2 29 2 31 8 3 8 8
8 18 -1 11 -8 30 -8 79 2 36 7 66 13 68 14 1 0 2 -3 2 -8z m-420 -21 c-8 -5
-22 -9 -30 -9 -10 0 -8 3 5 9 27 12 43 12 25 0z m3367 -21 c1 -19 1 -20 -4 -4
-3 11 -10 24 -17 28 -7 6 -6 7 4 4 8 -2 16 -14 17 -28z m-3247 11 c12 -8 11
-10 -7 -10 -13 0 -23 5 -23 10 0 13 11 13 30 0z m99 -6 c13 -13 -10 -12 -35 2
l-29 16 30 -7 c16 -4 32 -9 34 -11z m3251 4 c0 7 4 11 10 7 5 -3 6 -13 3 -22
-5 -12 -2 -15 10 -10 19 7 64 -29 52 -41 -4 -4 -11 1 -16 11 -6 9 -15 17 -20
17 -6 0 -7 -4 -4 -10 3 -5 2 -10 -4 -10 -5 0 -13 5 -16 10 -10 16 -23 12 -30
-10 -15 -46 -77 -60 -90 -20 -3 10 -14 28 -25 40 -19 21 -26 40 -16 40 2 0 14
-17 27 -37 37 -64 49 -68 82 -32 22 24 27 38 22 58 -4 20 -3 22 5 11 7 -11 10
-11 10 -2z m-3291 -22 c-2 -2 -22 -7 -44 -10 l-40 -6 40 13 c36 12 55 13 44 3z
m4271 -12 c35 -8 35 -8 -20 -15 -61 -8 -70 -6 -70 19 1 16 1 16 11 0 14 -25
29 -22 29 5 0 13 3 17 8 11 4 -6 23 -15 42 -20z m-4360 -3 c0 -13 -8 -21 -22
-23 -16 -2 -24 -11 -26 -29 -2 -21 -9 -26 -28 -26 -13 0 -24 3 -24 8 0 5 6 9
14 9 17 0 28 38 12 43 -6 2 2 4 19 4 16 0 34 8 40 17 13 21 15 20 15 -3z m385
9 c-11 -5 -29 -8 -40 -8 -16 0 -15 2 5 8 34 11 60 11 35 0z m-115 -20 c-14 -4
-38 -8 -55 -8 l-30 0 30 8 c17 4 41 8 55 8 l25 0 -25 -8z m3962 -35 c3 -13 2
-22 -2 -20 -4 3 -10 16 -12 30 -3 13 -2 22 2 20 4 -3 10 -16 12 -30z m-4367
15 c-3 -5 -10 -10 -16 -10 -5 0 -9 5 -9 10 0 6 7 10 16 10 8 0 12 -4 9 -10z
m315 6 c0 -11 -19 -15 -25 -6 -3 5 1 10 9 10 9 0 16 -2 16 -4z m3137 -2 c-3
-3 -12 -4 -19 -1 -8 3 -5 6 6 6 11 1 17 -2 13 -5z m-3177 -14 c0 -5 -4 -10
-10 -10 -5 0 -10 5 -10 10 0 6 5 10 10 10 6 0 10 -4 10 -10z m-370 -10 c-8 -5
-19 -10 -25 -10 -5 0 -3 5 5 10 8 5 20 10 25 10 6 0 3 -5 -5 -10z m3702 -9
c-7 -4 -8 -12 -1 -21 7 -12 11 -12 17 -2 6 9 13 7 28 -10 10 -13 12 -18 4 -12
-8 7 -29 11 -46 9 -31 -2 -31 -1 -22 27 6 15 14 25 20 22 7 -4 7 -9 0 -13z
m738 -2 c0 -6 -4 -8 -8 -5 -4 2 -13 -4 -20 -14 -11 -18 -9 -19 17 -16 20 2 32
-2 36 -12 7 -20 -1 -27 -17 -15 -24 20 -53 19 -71 -2 -10 -11 -3 3 15 32 30
46 48 59 48 32z m-4476 -21 c-5 -8 -1 -9 12 -4 14 5 16 4 7 -5 -13 -13 -37 -3
-28 12 4 5 8 9 11 9 3 0 2 -5 -2 -12z m113 -28 c3 -10 2 -11 -4 -4 -4 7 -17
14 -28 17 -16 5 -15 5 4 4 14 -1 26 -9 28 -17z m4622 -26 c-6 -16 -13 -24 -16
-17 -5 13 16 58 23 50 3 -2 -1 -17 -7 -33z m-4575 5 c-3 -5 -10 -7 -15 -3 -5
3 -7 10 -3 15 3 5 10 7 15 3 5 -3 7 -10 3 -15z m4338 -22 c12 -23 -5 -22 -26
2 -16 18 -17 19 -1 17 10 -1 21 -10 27 -19z m-652 -8 c0 -14 -17 -10 -23 5 -4
10 -1 13 9 9 7 -3 14 -9 14 -14z"/>
<path d="M6105 3855 c-212 -74 -625 -331 -625 -389 0 -35 31 -29 78 16 133
127 536 348 636 348 34 0 56 10 56 25 0 32 -54 32 -145 0z"/>
<path d="M6350 3750 c-173 -15 -363 -68 -545 -154 -101 -48 -299 -175 -360
-231 l-40 -37 24 -20 c24 -19 55 -19 126 -2 12 3 -5 -19 -43 -56 -41 -38 -62
-66 -58 -75 7 -19 23 -19 60 0 15 8 33 15 40 15 6 0 45 25 86 54 41 30 97 69
124 88 27 18 72 54 100 79 28 25 74 58 101 73 75 42 311 126 364 130 57 5 96
20 104 40 5 11 20 16 51 16 52 0 91 26 81 53 -4 9 -12 17 -19 18 -6 0 -20 2
-31 4 -11 2 -31 6 -45 8 -14 3 -68 1 -120 -3z"/>
<path d="M6235 3517 c-106 -40 -275 -152 -275 -182 0 -28 34 -26 74 5 85 63
202 130 264 151 35 12 60 25 55 29 -19 19 -61 18 -118 -3z"/>
<path d="M7533 3160 c-12 -5 -25 -15 -30 -22 -4 -7 -41 -35 -82 -63 -40 -27
-81 -60 -91 -72 -10 -13 -23 -23 -28 -23 -10 0 -86 -43 -142 -80 -115 -76
-204 -110 -290 -110 -56 0 -150 -19 -230 -46 -112 -38 -260 -150 -260 -196 1
-56 187 -265 268 -299 26 -11 60 -27 76 -35 39 -19 62 -18 85 5 13 13 18 27
14 43 -8 32 -34 60 -50 54 -50 -20 -263 141 -263 198 0 12 -6 31 -14 41 -19
26 2 57 59 91 88 51 204 82 332 89 88 4 162 24 208 55 71 47 229 138 270 156
22 9 58 30 79 47 33 26 37 28 27 9 -7 -12 -11 -28 -10 -35 3 -15 -22 -67 -31
-67 -4 0 -13 -14 -20 -31 -10 -22 -10 -33 -2 -41 9 -9 30 8 83 63 122 125 153
194 113 254 -17 26 -34 30 -71 15z"/>
<path d="M3892 2163 c-8 -8 -11 -21 -7 -31 6 -14 9 -11 16 12 10 36 8 39 -9
19z"/>
<path d="M3863 2125 c0 -22 2 -30 4 -17 2 12 2 30 0 40 -3 9 -5 -1 -4 -23z"/>
<path d="M6891 1484 c0 -11 3 -14 6 -6 3 7 2 16 -1 19 -3 4 -6 -2 -5 -13z"/>
<path d="M6706 1434 c7 -37 16 -47 12 -12 -2 15 -7 30 -11 34 -3 3 -4 -6 -1
-22z"/>
<path d="M6756 1398 l4 -43 -14 30 -15 30 -1 -27 c0 -16 5 -28 10 -28 6 0 10
-10 11 -22 1 -22 1 -22 9 2 11 35 12 88 1 94 -5 4 -7 -13 -5 -36z"/>
<path d="M6781 1419 c0 -13 4 -33 9 -44 7 -14 8 -8 3 20 -7 46 -13 59 -12 24z"/>
<path d="M6791 1334 c0 -11 3 -14 6 -6 3 7 2 16 -1 19 -3 4 -6 -2 -5 -13z"/>
<path d="M6873 1315 c0 -22 2 -30 4 -17 2 12 2 30 0 40 -3 9 -5 -1 -4 -23z"/>
<path d="M6815 1260 c10 -11 24 -20 32 -20 7 0 13 9 13 20 0 16 -7 20 -32 20
-30 0 -31 0 -13 -20z"/>
<path d="M6847 1194 c-4 -4 -7 -16 -7 -26 0 -13 7 -18 26 -18 23 0 26 -3 20
-27 -5 -22 -4 -25 4 -11 22 36 -17 108 -43 82z"/>
<path d="M9483 4243 c-33 -3 -43 -8 -43 -22 0 -15 11 -19 61 -25 95 -10 99 -9
99 18 0 18 -7 25 -31 30 -17 3 -34 5 -38 4 -3 -1 -25 -3 -48 -5z m82 -23 c4
-6 -5 -10 -19 -10 -14 0 -26 5 -26 10 0 6 9 10 19 10 11 0 23 -4 26 -10z"/>
<path d="M9528 4163 c6 -2 18 -2 25 0 6 3 1 5 -13 5 -14 0 -19 -2 -12 -5z"/>
<path d="M9523 4115 c0 -22 2 -30 4 -17 2 12 2 30 0 40 -3 9 -5 -1 -4 -23z"/>
<path d="M8778 4073 c7 -3 16 -2 19 1 4 3 -2 6 -13 5 -11 0 -14 -3 -6 -6z"/>
<path d="M9523 4035 c0 -22 2 -30 4 -17 2 12 2 30 0 40 -3 9 -5 -1 -4 -23z"/>
<path d="M8625 4050 c3 -5 8 -10 11 -10 2 0 4 5 4 10 0 6 -5 10 -11 10 -5 0
-7 -4 -4 -10z"/>
<path d="M8692 4027 c25 -7 50 -15 54 -19 10 -11 24 -10 24 1 0 12 -20 18 -80
25 l-45 5 47 -12z"/>
<path d="M8945 3989 c-4 -6 -4 -13 0 -17 3 -3 10 0 14 7 6 9 9 5 9 -13 0 -32
4 -38 25 -30 20 7 30 35 17 48 -7 7 -10 3 -10 -12 0 -12 -5 -22 -10 -22 -6 0
-10 6 -9 13 3 26 -1 37 -15 37 -8 0 -18 -5 -21 -11z"/>
<path d="M9067 3963 c21 -18 40 -33 43 -33 3 0 5 14 6 30 1 25 -1 28 -13 19
-7 -7 -17 -9 -20 -5 -4 4 -1 11 7 16 10 6 2 8 -23 7 l-38 -2 38 -32z"/>
<path d="M8870 3981 c0 -6 5 -11 12 -11 6 0 19 -7 28 -15 15 -14 17 -13 15 7
-1 17 -9 24 -28 26 -15 2 -27 -1 -27 -7z"/>
<path d="M9523 3955 c0 -22 2 -30 4 -17 2 12 2 30 0 40 -3 9 -5 -1 -4 -23z"/>
<path d="M9031 3964 c-1 -11 40 -54 52 -54 4 0 2 9 -5 20 -7 11 -18 20 -25 20
-6 0 -14 6 -16 13 -3 6 -6 7 -6 1z"/>
<path d="M9106 3912 c-8 -14 21 -23 50 -16 14 4 24 2 24 -5 0 -6 -5 -11 -12
-11 -6 0 -9 -3 -6 -6 4 -3 16 0 28 6 16 9 25 9 33 1 8 -8 6 -11 -8 -11 -17 -1
-17 -3 5 -15 32 -19 46 -19 30 0 -6 8 -9 19 -6 24 4 6 -10 13 -30 17 -25 5
-32 9 -22 15 17 11 10 11 -32 -1 -24 -7 -36 -6 -41 1 -4 7 -9 8 -13 1z"/>
<path d="M9221 3916 c2 -2 18 -6 34 -10 22 -5 26 -4 15 4 -14 9 -59 15 -49 6z"/>
<path d="M9523 3875 c0 -22 2 -30 4 -17 2 12 2 30 0 40 -3 9 -5 -1 -4 -23z"/>
<path d="M9265 3870 c3 -5 8 -10 11 -10 2 0 4 5 4 10 0 6 -5 10 -11 10 -5 0
-7 -4 -4 -10z"/>
<path d="M9277 3833 c-13 -12 -7 -33 8 -33 8 0 15 9 15 20 0 20 -11 26 -23 13z"/>
<path d="M9250 3790 c0 -6 4 -10 9 -10 5 0 11 -8 13 -18 3 -11 27 -29 54 -41
27 -13 59 -27 70 -33 12 -6 45 -11 73 -11 29 0 46 -4 39 -9 -8 -4 4 -8 28 -8
22 0 45 -5 52 -12 8 -8 12 -8 12 -1 0 13 -29 27 -52 24 -9 -1 -19 3 -23 9 -3
5 -19 10 -36 10 -40 0 -37 20 4 21 24 1 20 3 -18 9 -53 8 -68 4 -45 -10 8 -5
11 -12 7 -16 -4 -4 -13 -2 -19 4 -7 7 -23 12 -37 12 -26 1 -26 1 4 15 l30 13
-30 2 -30 2 30 9 30 8 -30 -1 c-56 0 -65 2 -65 17 0 8 -5 15 -11 15 -20 0 -4
-35 19 -38 23 -4 31 -22 10 -22 -17 1 -58 35 -58 48 0 5 -7 12 -15 16 -8 3
-15 1 -15 -4z"/>
<path d="M8727 3688 c-4 -40 -13 -111 -21 -158 -8 -47 -24 -150 -36 -230 -31
-201 -86 -513 -116 -650 -14 -63 -34 -160 -45 -215 -10 -55 -25 -129 -33 -165
-8 -36 -22 -108 -31 -160 -9 -52 -23 -133 -32 -180 -9 -47 -21 -123 -27 -170
-7 -47 -15 -91 -20 -98 -5 -8 -12 -93 -17 -190 -5 -122 -14 -202 -29 -256 -19
-76 -38 -189 -81 -486 -10 -74 -21 -142 -24 -150 -4 -8 -10 -77 -16 -155 -5
-77 -13 -162 -17 -190 l-7 -49 -15 29 c-12 23 -16 81 -19 260 -7 422 -1 1098
10 1153 13 63 47 144 65 155 7 4 16 24 20 45 3 20 12 57 19 82 31 108 47 167
94 367 28 116 51 219 51 229 0 16 -1 16 -18 1 -19 -18 -47 -99 -61 -182 -5
-27 -17 -75 -26 -105 -9 -30 -22 -80 -29 -110 -12 -48 -23 -88 -65 -235 -5
-16 -15 -54 -22 -84 -11 -44 -18 -55 -40 -63 -15 -5 -30 -16 -33 -25 -28 -71
-31 -1086 -5 -1294 9 -70 9 -108 1 -139 -9 -36 -7 -48 14 -95 14 -30 30 -81
36 -115 l12 -60 59 0 60 0 -7 33 c-16 79 -28 236 -21 287 3 30 10 113 15 185
17 240 29 370 39 425 6 30 20 111 30 180 11 69 34 199 51 289 16 90 33 189 36
220 3 31 10 71 16 90 6 19 12 66 14 105 2 67 42 299 84 501 11 50 26 140 35
200 9 61 20 128 25 150 5 22 10 69 10 105 0 41 6 73 14 86 8 11 22 63 31 114
9 52 18 98 21 102 6 9 31 152 40 218 3 25 12 79 19 120 8 41 22 131 30 200 13
115 13 126 -2 138 -9 6 -20 12 -23 12 -4 0 -10 -33 -13 -72z"/>
<path d="M9431 3749 c13 -8 97 -13 88 -5 -2 2 -26 6 -53 9 -30 3 -43 1 -35 -4z"/>
<path d="M9586 2013 c-4 -93 -6 -213 -6 -268 1 -87 -4 -122 -40 -265 -39 -152
-43 -179 -47 -331 -5 -165 -6 -166 -28 -161 -14 2 -24 -2 -29 -13 -15 -41 111
-565 145 -600 19 -19 19 -7 19 893 0 501 -2 912 -4 912 -2 0 -7 -75 -10 -167z
m-11 -1131 c-8 -95 -26 -95 -25 0 0 29 -3 100 -9 158 -8 98 1 261 17 300 10
25 25 -366 17 -458z"/>
<path d="M3085 1539 c-16 -15 -27 -31 -24 -33 3 -3 18 8 34 24 37 39 29 46
-10 9z"/>
<path d="M7021 1534 c0 -11 3 -14 6 -6 3 7 2 16 -1 19 -3 4 -6 -2 -5 -13z"/>
<path d="M3033 905 c-3 -9 -3 -18 -1 -21 3 -3 8 4 11 16 6 23 -1 27 -10 5z"/>
<path d="M3001 832 c-7 -17 -11 -37 -8 -44 3 -7 6 -4 6 8 1 11 6 25 12 31 6 6
9 17 7 24 -2 7 -10 -2 -17 -19z"/>
<path d="M2300 785 c0 -8 5 -15 10 -15 6 0 10 7 10 15 0 8 -4 15 -10 15 -5 0
-10 -7 -10 -15z"/>
<path d="M2962 739 c-21 -54 -24 -72 -13 -65 11 7 33 77 26 84 -2 3 -8 -6 -13
-19z"/>
<path d="M2926 645 c-3 -8 -1 -15 4 -15 6 0 10 7 10 15 0 8 -2 15 -4 15 -2 0
-6 -7 -10 -15z"/>
<path d="M4137 456 c-8 -19 32 -179 82 -331 33 -102 42 -121 61 -123 18 -3 22
0 17 15 -47 152 -156 450 -160 439z"/>
<path d="M5422 120 c-7 -11 -9 -20 -4 -20 10 0 32 22 32 32 0 15 -15 8 -28
-12z"/>
<path d="M1348 83 c7 -3 16 -2 19 1 4 3 -2 6 -13 5 -11 0 -14 -3 -6 -6z"/>
<path d="M5372 63 c-33 -36 -22 -38 17 -3 18 17 26 30 19 29 -7 -1 -23 -12
-36 -26z"/>
</g>
</svg>
